<svg width="36" height="36" viewBox="0 0 36 36" fill="none" xmlns="http://www.w3.org/2000/svg">
<g filter="url(#filter0_d)">
<circle cx="18" cy="10" r="6" fill="#29DBB0"/>
<path d="M20.7319 7.63142L16.8807 11.4252L15.273 9.84146C15.1881 9.75781 15.0729 9.71082 14.9528 9.71082C14.8327 9.71082 14.7175 9.75781 14.6326 9.84146C14.5477 9.92511 14.5 10.0386 14.5 10.1569C14.5 10.2154 14.5117 10.2734 14.5345 10.3276C14.5572 10.3817 14.5906 10.4308 14.6326 10.4723L16.5582 12.3691C16.7354 12.5436 17.0215 12.5436 17.1986 12.3691L21.3677 8.26222C21.4101 8.22037 21.4435 8.17066 21.4662 8.11598C21.4889 8.0613 21.5004 8.00273 21.5 7.94365C21.4996 7.88458 21.4873 7.82617 21.4638 7.77181C21.4403 7.71745 21.4061 7.66821 21.3632 7.62695C21.1951 7.45695 20.909 7.45695 20.7319 7.63142Z" fill="white"/>
</g>
<defs>
<filter id="filter0_d" x="0" y="0" width="36" height="36" filterUnits="userSpaceOnUse" color-interpolation-filters="sRGB">
<feFlood flood-opacity="0" result="BackgroundImageFix"/>
<feColorMatrix in="SourceAlpha" type="matrix" values="0 0 0 0 0 0 0 0 0 0 0 0 0 0 0 0 0 0 127 0"/>
<feOffset dy="8"/>
<feGaussianBlur stdDeviation="6"/>
<feColorMatrix type="matrix" values="0 0 0 0 0.0745098 0 0 0 0 0.172549 0 0 0 0 0.32549 0 0 0 1 0"/>
<feBlend mode="normal" in2="BackgroundImageFix" result="effect1_dropShadow"/>
<feBlend mode="normal" in="SourceGraphic" in2="effect1_dropShadow" result="shape"/>
</filter>
</defs>
</svg>
