<svg width="12" height="12" viewBox="0 0 12 12" fill="none" xmlns="http://www.w3.org/2000/svg">
<circle cx="6" cy="6" r="6" fill="#29DBB0"/>
<path d="M8.73191 3.63142L4.88068 7.42518L3.27298 5.84146C3.18806 5.75781 3.07289 5.71082 2.9528 5.71082C2.83271 5.71082 2.71754 5.75781 2.63262 5.84146C2.54771 5.92511 2.5 6.03857 2.5 6.15686C2.5 6.21544 2.51171 6.27344 2.53447 6.32756C2.55722 6.38167 2.59058 6.43085 2.63262 6.47226L4.55824 8.36914C4.73536 8.54362 5.02147 8.54362 5.19859 8.36914L9.36773 4.26222C9.41005 4.22037 9.44354 4.17066 9.46624 4.11598C9.48894 4.0613 9.50041 4.00273 9.49999 3.94365C9.49957 3.88458 9.48726 3.82617 9.46378 3.77181C9.4403 3.71745 9.40611 3.66821 9.36318 3.62695C9.19515 3.45695 8.90903 3.45695 8.73191 3.63142Z" fill="white"/>
</svg>
