<svg width="512" height="512" viewBox="0 0 512 512" fill="none" xmlns="http://www.w3.org/2000/svg">
<path d="M447.652 58.9399C447.652 58.9399 351.58 85.3841 315.244 95.6815C278.909 105.979 256.38 183.522 256.138 184.199L149.56 214.028C149.56 214.028 110.797 221.715 110.797 261.701C110.797 299.651 149.56 285.389 149.56 285.389C149.56 285.389 168.116 280.554 204.354 270.161C240.593 259.768 256.047 184.93 256.144 184.253L447.657 131.074C447.657 131.074 486.42 122.804 486.42 82.7298C486.604 44.679 447.652 58.9399 447.652 58.9399V58.9399Z" fill="#FF671D"/>
<path d="M64.6478 455.167L204.272 415.863C240.366 405.614 255.914 330.632 256.111 329.907L362.695 300.078C362.695 300.078 401.458 292.392 401.458 252.411C401.458 214.509 362.409 227.949 362.409 227.949C362.409 227.949 343.902 232.784 307.663 243.177C271.425 253.57 255.971 329.23 255.825 329.907L64.3571 383.086C64.3571 383.086 25.5938 391.402 25.5938 431.431C25.7009 469.478 64.6478 455.167 64.6478 455.167V455.167Z" fill="#FF671D"/>
</svg>
