<svg width="24" height="24" viewBox="0 0 24 24" fill="none" xmlns="http://www.w3.org/2000/svg">
<circle cx="12" cy="12" r="12" fill="#FF671D"/>
<path d="M13.1641 13.5078H11.2891L11.0234 5.625H13.4297L13.1641 13.5078ZM12.2266 14.7422C12.6068 14.7422 12.9115 14.8542 13.1406 15.0781C13.375 15.3021 13.4922 15.5885 13.4922 15.9375C13.4922 16.2812 13.375 16.5651 13.1406 16.7891C12.9115 17.013 12.6068 17.125 12.2266 17.125C11.8516 17.125 11.5469 17.013 11.3125 16.7891C11.0833 16.5651 10.9688 16.2812 10.9688 15.9375C10.9688 15.5938 11.0833 15.3099 11.3125 15.0859C11.5469 14.8568 11.8516 14.7422 12.2266 14.7422Z" fill="white"/>
</svg>
