<svg width="24" height="24" fill="none" xmlns="http://www.w3.org/2000/svg"><circle cx="12" cy="12" r="12" fill="#132C53"/><path d="M6.75 18.934a.562.562 0 01.486-.558l.077-.005 9.753.002a.562.562 0 01.076 1.12l-.076.005-9.753-.002a.563.563 0 01-.563-.562zm1.353-9.672l-.063-.054a.563.563 0 01-.055-.732l.055-.063 3.748-3.748a.563.563 0 01.732-.055l.064.055 3.752 3.747a.563.563 0 01-.732.85l-.063-.054-2.788-2.783v10.258a.563.563 0 01-.485.557l-.077.005a.562.562 0 01-.557-.486l-.005-.076-.001-10.268-2.793 2.793a.563.563 0 01-.732.054l-.063-.054.063.054z" fill="#fff"/></svg>
