<svg width="39" height="24" viewBox="0 0 39 24" fill="none" xmlns="http://www.w3.org/2000/svg">
<circle cx="27" cy="12" r="12" fill="white"/>
<circle cx="27" cy="12" r="11.5" stroke="#132C53" stroke-opacity="0.2"/>
<path opacity="0.600006" d="M27.4298 10.3486L23 12.3664L27.4298 14.9904L31.8596 12.3664L27.4298 10.3486Z" fill="#010101"/>
<path opacity="0.449997" d="M23 12.3659L27.4298 14.9899V10.3481V5L23 12.3659Z" fill="#010101"/>
<path opacity="0.800003" d="M27.4316 5V10.3481V14.9899L31.8614 12.3659L27.4316 5Z" fill="#010101"/>
<path opacity="0.449997" d="M23 13.208L27.4298 19.4637V15.8307L23 13.208Z" fill="#010101"/>
<path opacity="0.800003" d="M27.4316 15.8307V19.4637L31.8641 13.208L27.4316 15.8307Z" fill="#010101"/>
<circle cx="12" cy="12" r="12" fill="white"/>
<circle cx="12" cy="12" r="11.5" stroke="#132C53" stroke-opacity="0.2"/>
<path d="M17.7128 6.07824C17.7128 6.07824 14.8413 6.86863 13.7553 7.17641C12.6692 7.48419 11.9959 9.8019 11.9886 9.82213L8.80313 10.7137C8.80313 10.7137 7.64453 10.9434 7.64453 12.1386C7.64453 13.2729 8.80313 12.8466 8.80313 12.8466C8.80313 12.8466 9.35774 12.7021 10.4409 12.3914C11.524 12.0808 11.9859 9.84396 11.9888 9.82373L17.713 8.23427C17.713 8.23427 18.8716 7.98707 18.8716 6.7893C18.8771 5.65199 17.7128 6.07824 17.7128 6.07824Z" fill="#FF671D"/>
<path d="M6.2669 17.9211L10.4402 16.7463C11.519 16.44 11.9837 14.1988 11.9896 14.1771L15.1753 13.2856C15.1753 13.2856 16.3339 13.0558 16.3339 11.8609C16.3339 10.728 15.1667 11.1297 15.1667 11.1297C15.1667 11.1297 14.6136 11.2742 13.5304 11.5849C12.4473 11.8955 11.9854 14.1569 11.981 14.1771L6.25821 15.7666C6.25821 15.7666 5.09961 16.0152 5.09961 17.2116C5.10281 18.3488 6.2669 17.9211 6.2669 17.9211Z" fill="#FF671D"/>
</svg>
