<svg width="24" height="24" viewBox="0 0 24 24" fill="none" xmlns="http://www.w3.org/2000/svg">
<circle cx="12" cy="12" r="12" fill="#132C53"/>
<path fill-rule="evenodd" clip-rule="evenodd" d="M17.4592 9.4975C17.4472 9.52336 17.4325 9.54817 17.4114 9.56959L10.1228 16.8579C10.0943 16.907 10.0549 16.9498 9.99875 16.9712L6.38084 17.9846C6.37327 17.9883 6.36465 17.9888 6.35629 17.9914L6.34402 17.9951C6.34193 17.9959 6.33958 17.9953 6.33775 17.9961C6.3132 18.0027 6.28891 18.0081 6.26305 18.0079C6.23745 18.0087 6.21369 18.004 6.1894 17.9972C6.18391 17.9956 6.17895 17.9966 6.17347 17.9948C6.17138 17.994 6.17007 17.9922 6.16798 17.9914C6.145 17.9828 6.12515 17.9697 6.1053 17.9546C6.09511 17.9473 6.0844 17.9408 6.07578 17.9321C6.06716 17.9235 6.06063 17.9128 6.05332 17.9026C6.03817 17.883 6.02537 17.8629 6.01649 17.8399C6.01545 17.8378 6.01388 17.8365 6.0131 17.8345C6.01127 17.8292 6.01232 17.824 6.01075 17.8185C6.00422 17.7945 5.99952 17.7705 6.00004 17.7451C6.00004 17.719 6.00526 17.6947 6.01179 17.6702C6.01284 17.6681 6.01205 17.666 6.01284 17.6642L6.01649 17.6514C6.01937 17.6435 6.01989 17.6349 6.02328 17.6271L7.03667 14.0092C7.05809 13.9528 7.10093 13.9141 7.15003 13.8851L14.3271 6.70781C14.3375 6.69605 14.3498 6.68613 14.3605 6.67464L14.4386 6.59654C14.4425 6.59262 14.4475 6.59132 14.4517 6.58766C14.8288 6.22723 15.335 6 15.8983 6C17.059 6 18.0001 6.94104 18.0001 8.10174C18.0001 8.64004 17.7924 9.1261 17.4592 9.4975ZM16.4722 9.78715L15.5269 8.84193L9.35258 15.0166C9.35363 15.0186 9.35624 15.0194 9.35728 15.0215L9.97707 16.2822L16.4722 9.78715ZM6.65404 17.3544L7.38144 17.1509L6.8575 16.6273L6.65404 17.3544ZM7.01552 16.0634L7.94481 16.9929L9.54325 16.545C9.54325 16.545 8.86783 15.1419 8.86678 15.1414L7.46319 14.4649L7.01552 16.0634ZM8.98666 14.6514C8.98875 14.6525 8.98954 14.6548 8.99163 14.6561L15.1663 8.48124L14.221 7.53602L7.72594 14.0311L8.98666 14.6514ZM15.8902 6.52237C15.4248 6.52237 15.0095 6.72504 14.7178 7.04316L14.716 7.04134L14.5817 7.17532L16.8329 9.42646L16.9705 9.28855L16.9689 9.28699C17.2847 8.99551 17.4858 8.58153 17.4858 8.11793C17.4858 7.2367 16.7715 6.52237 15.8902 6.52237Z" fill="white"/>
</svg>
