<svg width="24" height="24" viewBox="0 0 24 24" fill="none" xmlns="http://www.w3.org/2000/svg">
<circle cx="12" cy="12" r="12" fill="#132C53"/>
<path d="M7.06668 14.7577C6.97768 14.7577 6.89043 14.7346 6.81469 14.6909C6.73895 14.6473 6.67771 14.5847 6.63784 14.5104C6.07181 13.4579 5.87554 12.2653 6.07698 11.1025C6.27843 9.93967 6.86731 8.8659 7.75977 8.03408C10.0982 5.84834 13.9034 5.84834 16.2418 8.03408C16.3292 8.11857 16.3775 8.23172 16.3764 8.34918C16.3753 8.46663 16.3249 8.57899 16.236 8.66204C16.1471 8.7451 16.0269 8.79221 15.9012 8.79323C15.7756 8.79425 15.6545 8.7491 15.5641 8.6675C13.5985 6.83116 10.4031 6.83116 8.43754 8.6675C7.68773 9.36638 7.19299 10.2686 7.02379 11.2455C6.85459 12.2225 7.01956 13.2245 7.49519 14.1087C7.53187 14.177 7.54925 14.2529 7.54568 14.3292C7.54212 14.4056 7.51772 14.4798 7.47481 14.5448C7.43189 14.6099 7.3719 14.6636 7.30052 14.7008C7.22914 14.7381 7.14875 14.7576 7.067 14.7577H7.06668Z" fill="white"/>
<path d="M12.0009 17.6003C11.2133 17.6016 10.4332 17.4575 9.70542 17.1762C8.97761 16.895 8.31643 16.4821 7.75987 15.9613C7.71534 15.9197 7.68002 15.8704 7.65592 15.816C7.63181 15.7617 7.6194 15.7034 7.61938 15.6446C7.61937 15.5857 7.63175 15.5275 7.65583 15.4731C7.67991 15.4188 7.7152 15.3694 7.75971 15.3278C7.80421 15.2861 7.85705 15.2531 7.9152 15.2306C7.97335 15.2081 8.03568 15.1965 8.09863 15.1965C8.16158 15.1965 8.22392 15.208 8.28209 15.2305C8.34025 15.253 8.3931 15.286 8.43763 15.3276C10.4032 17.1639 13.5986 17.1639 15.5642 15.3276C16.314 14.6287 16.8087 13.7266 16.9779 12.7496C17.1471 11.7726 16.9822 10.7706 16.5065 9.8864C16.4495 9.78018 16.44 9.65716 16.4801 9.54439C16.5201 9.43163 16.6065 9.33835 16.7201 9.28509C16.8338 9.23182 16.9654 9.22293 17.0861 9.26037C17.2067 9.29781 17.3066 9.37851 17.3635 9.48473C17.8222 10.3392 18.0394 11.2892 17.9942 12.2443C17.9491 13.1994 17.6433 14.1278 17.1058 14.9412C16.5683 15.7546 15.817 16.426 14.9235 16.8914C14.03 17.3569 13.0238 17.6009 12.0009 17.6003V17.6003Z" fill="white"/>
<path d="M13.8609 8.9887C13.7383 8.98812 13.6206 8.94364 13.532 8.8644C13.4434 8.78517 13.3906 8.6772 13.3846 8.56273C13.3786 8.44825 13.4198 8.33598 13.4996 8.24901C13.5795 8.16203 13.692 8.10698 13.814 8.09517L15.3296 7.95392L15.0257 6.5303C15.0025 6.41442 15.0291 6.29466 15.0998 6.197C15.1705 6.09935 15.2795 6.03166 15.4032 6.00863C15.5269 5.9856 15.6554 6.00908 15.7607 6.07398C15.866 6.13887 15.9397 6.23996 15.9658 6.3553L16.3729 8.2645C16.386 8.32579 16.3852 8.38896 16.3706 8.44995C16.356 8.51094 16.3279 8.5684 16.2881 8.61864C16.2483 8.66887 16.1977 8.71077 16.1396 8.74164C16.0814 8.77251 16.017 8.79166 15.9505 8.79787L13.9092 8.9881C13.8929 8.9881 13.8769 8.9887 13.8609 8.9887Z" fill="white"/>
<path d="M8.50548 17.9999C8.39466 17.9998 8.2873 17.9639 8.20166 17.8981C8.11602 17.8324 8.05739 17.741 8.03574 17.6394L7.62864 15.7317C7.61556 15.6704 7.61635 15.6072 7.63098 15.5462C7.6456 15.4852 7.67373 15.4277 7.71355 15.3775C7.75337 15.3272 7.804 15.2853 7.86219 15.2545C7.92037 15.2236 7.98483 15.2045 8.0514 15.1983L10.0927 15.0081C10.2192 14.9962 10.3455 15.0318 10.4439 15.107C10.5424 15.1822 10.6048 15.2908 10.6175 15.409C10.6302 15.5272 10.5922 15.6453 10.5117 15.7373C10.4313 15.8293 10.315 15.8877 10.1885 15.8995L8.67292 16.0408L8.97649 17.4644C8.99035 17.5295 8.98859 17.5966 8.97132 17.6609C8.95406 17.7252 8.92173 17.7852 8.87667 17.8364C8.8316 17.8876 8.77493 17.9289 8.71074 17.9571C8.64655 17.9854 8.57644 18 8.50548 17.9999V17.9999Z" fill="white"/>
</svg>
