<svg width="170" height="64" viewBox="0 0 170 64" fill="none" xmlns="http://www.w3.org/2000/svg">
<path opacity="0.4" d="M85 64C102.673 64 117 49.6731 117 32C117 14.3269 102.673 0 85 0C67.3269 0 53 14.3269 53 32C53 49.6731 67.3269 64 85 64Z" fill="url(#paint0_linear)"/>
<g filter="url(#filter0_d)">
<path d="M73.3943 39.713L77.9261 35.1945C76.464 33.3317 75.6706 31.0313 75.6735 28.6632C75.6735 26.5542 76.2989 24.4926 77.4706 22.7391C78.6423 20.9855 80.3077 19.6188 82.2561 18.8117C84.2046 18.0046 86.3486 17.7935 88.4171 18.2049C90.4855 18.6163 92.3855 19.6319 93.8768 21.1232C95.3681 22.6145 96.3837 24.5145 96.7951 26.5829C97.2065 28.6514 96.9954 30.7954 96.1883 32.7439C95.3812 34.6923 94.0145 36.3577 92.2609 37.5294C90.5074 38.7011 88.4458 39.3265 86.3368 39.3265C83.9687 39.3294 81.6683 38.536 79.8055 37.0739L75.287 41.6057C75.1631 41.7307 75.0157 41.8298 74.8532 41.8975C74.6908 41.9652 74.5166 42 74.3406 42C74.1647 42 73.9905 41.9652 73.828 41.8975C73.6656 41.8298 73.5182 41.7307 73.3943 41.6057C73.2693 41.4818 73.1702 41.3344 73.1025 41.172C73.0348 41.0095 73 40.8353 73 40.6594C73 40.4834 73.0348 40.3092 73.1025 40.1468C73.1702 39.9843 73.2693 39.8369 73.3943 39.713ZM94.3342 28.6632C94.3342 27.0815 93.8651 25.5353 92.9864 24.2201C92.1076 22.9049 90.8586 21.8799 89.3972 21.2746C87.9359 20.6693 86.3279 20.5109 84.7765 20.8195C83.2252 21.1281 81.8002 21.8897 80.6817 23.0082C79.5633 24.1267 78.8016 25.5517 78.493 27.103C78.1844 28.6544 78.3428 30.2624 78.9481 31.7237C79.5534 33.1851 80.5785 34.4341 81.8936 35.3128C83.2088 36.1916 84.755 36.6607 86.3368 36.6607C88.4578 36.6607 90.492 35.8181 91.9918 34.3183C93.4916 32.8185 94.3342 30.7843 94.3342 28.6632Z" fill="url(#paint1_linear)"/>
</g>
<path opacity="0.4" d="M168 34C169.105 34 170 33.1046 170 32C170 30.8954 169.105 30 168 30C166.895 30 166 30.8954 166 32C166 33.1046 166.895 34 168 34Z" fill="url(#paint2_linear)"/>
<path opacity="0.4" d="M149 34C150.105 34 151 33.1046 151 32C151 30.8954 150.105 30 149 30C147.895 30 147 30.8954 147 32C147 33.1046 147.895 34 149 34Z" fill="url(#paint3_linear)"/>
<path opacity="0.4" d="M130 34C131.105 34 132 33.1046 132 32C132 30.8954 131.105 30 130 30C128.895 30 128 30.8954 128 32C128 33.1046 128.895 34 130 34Z" fill="url(#paint4_linear)"/>
<path opacity="0.4" d="M40 34C41.1046 34 42 33.1046 42 32C42 30.8954 41.1046 30 40 30C38.8954 30 38 30.8954 38 32C38 33.1046 38.8954 34 40 34Z" fill="url(#paint5_linear)"/>
<path opacity="0.4" d="M21 34C22.1046 34 23 33.1046 23 32C23 30.8954 22.1046 30 21 30C19.8954 30 19 30.8954 19 32C19 33.1046 19.8954 34 21 34Z" fill="url(#paint6_linear)"/>
<path opacity="0.4" d="M2 34C3.10457 34 4 33.1046 4 32C4 30.8954 3.10457 30 2 30C0.89543 30 0 30.8954 0 32C0 33.1046 0.89543 34 2 34Z" fill="url(#paint7_linear)"/>
<defs>
<filter id="filter0_d" x="61" y="14" width="48" height="48" filterUnits="userSpaceOnUse" color-interpolation-filters="sRGB">
<feFlood flood-opacity="0" result="BackgroundImageFix"/>
<feColorMatrix in="SourceAlpha" type="matrix" values="0 0 0 0 0 0 0 0 0 0 0 0 0 0 0 0 0 0 127 0"/>
<feOffset dy="8"/>
<feGaussianBlur stdDeviation="6"/>
<feColorMatrix type="matrix" values="0 0 0 0 0.0745098 0 0 0 0 0.172549 0 0 0 0 0.32549 0 0 0 1 0"/>
<feBlend mode="normal" in2="BackgroundImageFix" result="effect1_dropShadow"/>
<feBlend mode="normal" in="SourceGraphic" in2="effect1_dropShadow" result="shape"/>
</filter>
<linearGradient id="paint0_linear" x1="85" y1="0" x2="85" y2="64" gradientUnits="userSpaceOnUse">
<stop stop-color="white"/>
<stop offset="1" stop-color="white" stop-opacity="0"/>
</linearGradient>
<linearGradient id="paint1_linear" x1="92.2" y1="18" x2="87.3074" y2="32.4232" gradientUnits="userSpaceOnUse">
<stop stop-color="white"/>
<stop offset="1" stop-color="white" stop-opacity="0.4"/>
</linearGradient>
<linearGradient id="paint2_linear" x1="168" y1="30" x2="168" y2="34" gradientUnits="userSpaceOnUse">
<stop stop-color="white"/>
<stop offset="1" stop-color="white" stop-opacity="0"/>
</linearGradient>
<linearGradient id="paint3_linear" x1="149" y1="30" x2="149" y2="34" gradientUnits="userSpaceOnUse">
<stop stop-color="white"/>
<stop offset="1" stop-color="white" stop-opacity="0"/>
</linearGradient>
<linearGradient id="paint4_linear" x1="130" y1="30" x2="130" y2="34" gradientUnits="userSpaceOnUse">
<stop stop-color="white"/>
<stop offset="1" stop-color="white" stop-opacity="0"/>
</linearGradient>
<linearGradient id="paint5_linear" x1="40" y1="30" x2="40" y2="34" gradientUnits="userSpaceOnUse">
<stop stop-color="white"/>
<stop offset="1" stop-color="white" stop-opacity="0"/>
</linearGradient>
<linearGradient id="paint6_linear" x1="21" y1="30" x2="21" y2="34" gradientUnits="userSpaceOnUse">
<stop stop-color="white"/>
<stop offset="1" stop-color="white" stop-opacity="0"/>
</linearGradient>
<linearGradient id="paint7_linear" x1="2" y1="30" x2="2" y2="34" gradientUnits="userSpaceOnUse">
<stop stop-color="white"/>
<stop offset="1" stop-color="white" stop-opacity="0"/>
</linearGradient>
</defs>
</svg>
