<svg width="170" height="64" viewBox="0 0 170 64" fill="none" xmlns="http://www.w3.org/2000/svg">
  <circle opacity="0.4" cx="85" cy="32" r="32" fill="url(#paint0_linear)"/>
  <circle opacity="0.4" cx="168" cy="32" r="2" fill="url(#paint1_linear)"/>
  <circle opacity="0.4" cx="149" cy="32" r="2" fill="url(#paint2_linear)"/>
  <circle opacity="0.4" cx="130" cy="32" r="2" fill="url(#paint3_linear)"/>
  <circle opacity="0.4" cx="40" cy="32" r="2" fill="url(#paint4_linear)"/>
  <circle opacity="0.4" cx="21" cy="32" r="2" fill="url(#paint5_linear)"/>
  <circle opacity="0.4" cx="2" cy="32" r="2" fill="url(#paint6_linear)"/>
  <g filter="url(#filter0_d)">
  <circle cx="85" cy="32" r="12" fill="#DB4929"/>
  <path fill-rule="evenodd" clip-rule="evenodd" d="M90.1784 27.3536C90.3736 27.1583 90.3736 26.8417 90.1784 26.6464C89.9831 26.4512 89.6665 26.4512 89.4712 26.6464L84.9122 31.2055L80.3536 26.6468C80.1583 26.4516 79.8417 26.4516 79.6464 26.6468C79.4512 26.8421 79.4512 27.1587 79.6464 27.3539L84.2051 31.9126L79.6464 36.4712C79.4512 36.6665 79.4512 36.9831 79.6464 37.1784C79.8417 37.3736 80.1583 37.3736 80.3536 37.1784L84.9122 32.6197L89.4712 37.1787C89.6665 37.374 89.9831 37.374 90.1784 37.1787C90.3736 36.9835 90.3736 36.6669 90.1784 36.4716L85.6193 31.9126L90.1784 27.3536Z" fill="white"/>
  </g>
  <defs>
  <filter id="filter0_d" x="69" y="20" width="32" height="32" filterUnits="userSpaceOnUse" color-interpolation-filters="sRGB">
  <feFlood flood-opacity="0" result="BackgroundImageFix"/>
  <feColorMatrix in="SourceAlpha" type="matrix" values="0 0 0 0 0 0 0 0 0 0 0 0 0 0 0 0 0 0 127 0" result="hardAlpha"/>
  <feOffset dy="4"/>
  <feGaussianBlur stdDeviation="2"/>
  <feComposite in2="hardAlpha" operator="out"/>
  <feColorMatrix type="matrix" values="0 0 0 0 0 0 0 0 0 0 0 0 0 0 0 0 0 0 0.25 0"/>
  <feBlend mode="normal" in2="BackgroundImageFix" result="effect1_dropShadow"/>
  <feBlend mode="normal" in="SourceGraphic" in2="effect1_dropShadow" result="shape"/>
  </filter>
  <linearGradient id="paint0_linear" x1="85" y1="0" x2="85" y2="64" gradientUnits="userSpaceOnUse">
  <stop stop-color="white"/>
  <stop offset="1" stop-color="white" stop-opacity="0"/>
  </linearGradient>
  <linearGradient id="paint1_linear" x1="168" y1="30" x2="168" y2="34" gradientUnits="userSpaceOnUse">
  <stop stop-color="white"/>
  <stop offset="1" stop-color="white" stop-opacity="0"/>
  </linearGradient>
  <linearGradient id="paint2_linear" x1="149" y1="30" x2="149" y2="34" gradientUnits="userSpaceOnUse">
  <stop stop-color="white"/>
  <stop offset="1" stop-color="white" stop-opacity="0"/>
  </linearGradient>
  <linearGradient id="paint3_linear" x1="130" y1="30" x2="130" y2="34" gradientUnits="userSpaceOnUse">
  <stop stop-color="white"/>
  <stop offset="1" stop-color="white" stop-opacity="0"/>
  </linearGradient>
  <linearGradient id="paint4_linear" x1="40" y1="30" x2="40" y2="34" gradientUnits="userSpaceOnUse">
  <stop stop-color="white"/>
  <stop offset="1" stop-color="white" stop-opacity="0"/>
  </linearGradient>
  <linearGradient id="paint5_linear" x1="21" y1="30" x2="21" y2="34" gradientUnits="userSpaceOnUse">
  <stop stop-color="white"/>
  <stop offset="1" stop-color="white" stop-opacity="0"/>
  </linearGradient>
  <linearGradient id="paint6_linear" x1="2" y1="30" x2="2" y2="34" gradientUnits="userSpaceOnUse">
  <stop stop-color="white"/>
  <stop offset="1" stop-color="white" stop-opacity="0"/>
  </linearGradient>
  </defs>
  </svg>
