<svg width="170" height="64" viewBox="0 0 170 64" fill="none" xmlns="http://www.w3.org/2000/svg">
  <circle opacity="0.4" cx="85" cy="32" r="32" fill="url(#paint0_linear)"/>
  <g filter="url(#filter0_d)">
  <circle cx="85" cy="32" r="12" fill="#29DBB0"/>
  <path d="M90.4638 27.2628L82.7614 34.8504L79.546 31.6829C79.3761 31.5156 79.1458 31.4216 78.9056 31.4216C78.6654 31.4216 78.4351 31.5156 78.2652 31.6829C78.0954 31.8502 78 32.0771 78 32.3137C78 32.4309 78.0234 32.5469 78.0689 32.6551C78.1144 32.7633 78.1812 32.8617 78.2652 32.9445L82.1165 36.7383C82.4707 37.0872 83.0429 37.0872 83.3972 36.7383L91.7355 28.5244C91.8201 28.4407 91.8871 28.3413 91.9325 28.232C91.9779 28.1226 92.0008 28.0055 92 27.8873C91.9991 27.7692 91.9745 27.6523 91.9276 27.5436C91.8806 27.4349 91.8122 27.3364 91.7264 27.2539C91.3903 26.9139 90.8181 26.9139 90.4638 27.2628Z" fill="white"/>
  </g>
  <circle opacity="0.4" cx="168" cy="32" r="2" fill="url(#paint1_linear)"/>
  <circle opacity="0.4" cx="149" cy="32" r="2" fill="url(#paint2_linear)"/>
  <circle opacity="0.4" cx="130" cy="32" r="2" fill="url(#paint3_linear)"/>
  <circle opacity="0.4" cx="40" cy="32" r="2" fill="url(#paint4_linear)"/>
  <circle opacity="0.4" cx="21" cy="32" r="2" fill="url(#paint5_linear)"/>
  <circle opacity="0.4" cx="2" cy="32" r="2" fill="url(#paint6_linear)"/>
  <defs>
  <filter id="filter0_d" x="61" y="16" width="48" height="48" filterUnits="userSpaceOnUse" color-interpolation-filters="sRGB">
  <feFlood flood-opacity="0" result="BackgroundImageFix"/>
  <feColorMatrix in="SourceAlpha" type="matrix" values="0 0 0 0 0 0 0 0 0 0 0 0 0 0 0 0 0 0 127 0" result="hardAlpha"/>
  <feOffset dy="8"/>
  <feGaussianBlur stdDeviation="6"/>
  <feColorMatrix type="matrix" values="0 0 0 0 0.0745098 0 0 0 0 0.172549 0 0 0 0 0.32549 0 0 0 1 0"/>
  <feBlend mode="normal" in2="BackgroundImageFix" result="effect1_dropShadow"/>
  <feBlend mode="normal" in="SourceGraphic" in2="effect1_dropShadow" result="shape"/>
  </filter>
  <linearGradient id="paint0_linear" x1="85" y1="0" x2="85" y2="64" gradientUnits="userSpaceOnUse">
  <stop stop-color="white"/>
  <stop offset="1" stop-color="white" stop-opacity="0"/>
  </linearGradient>
  <linearGradient id="paint1_linear" x1="168" y1="30" x2="168" y2="34" gradientUnits="userSpaceOnUse">
  <stop stop-color="white"/>
  <stop offset="1" stop-color="white" stop-opacity="0"/>
  </linearGradient>
  <linearGradient id="paint2_linear" x1="149" y1="30" x2="149" y2="34" gradientUnits="userSpaceOnUse">
  <stop stop-color="white"/>
  <stop offset="1" stop-color="white" stop-opacity="0"/>
  </linearGradient>
  <linearGradient id="paint3_linear" x1="130" y1="30" x2="130" y2="34" gradientUnits="userSpaceOnUse">
  <stop stop-color="white"/>
  <stop offset="1" stop-color="white" stop-opacity="0"/>
  </linearGradient>
  <linearGradient id="paint4_linear" x1="40" y1="30" x2="40" y2="34" gradientUnits="userSpaceOnUse">
  <stop stop-color="white"/>
  <stop offset="1" stop-color="white" stop-opacity="0"/>
  </linearGradient>
  <linearGradient id="paint5_linear" x1="21" y1="30" x2="21" y2="34" gradientUnits="userSpaceOnUse">
  <stop stop-color="white"/>
  <stop offset="1" stop-color="white" stop-opacity="0"/>
  </linearGradient>
  <linearGradient id="paint6_linear" x1="2" y1="30" x2="2" y2="34" gradientUnits="userSpaceOnUse">
  <stop stop-color="white"/>
  <stop offset="1" stop-color="white" stop-opacity="0"/>
  </linearGradient>
  </defs>
  </svg>
