<svg width="24" height="24" viewBox="0 0 24 24" fill="none" xmlns="http://www.w3.org/2000/svg">
<circle cx="12" cy="12" r="12" fill="#132C53"/>
<path d="M12.2829 14.0127H12.2751C12.169 14.0118 12.0641 13.9899 11.9665 13.9484C11.8688 13.9069 11.7803 13.8466 11.706 13.7708C11.6317 13.6951 11.5731 13.6054 11.5334 13.507C11.4938 13.4086 11.474 13.3033 11.4751 13.1972C11.4848 12.1386 12.3553 11.0478 13.123 10.0855C13.2813 9.88713 13.4332 9.69778 13.5644 9.522C13.6689 9.37027 13.7284 9.1921 13.7361 9.00802C13.7437 8.82394 13.6992 8.64144 13.6077 8.48156C13.4893 8.23485 13.307 8.02438 13.0797 7.87208C12.8524 7.71977 12.5884 7.63121 12.3152 7.6156C11.3801 7.6156 10.6156 8.17782 10.6156 8.84345C10.6156 9.05769 10.5305 9.26316 10.379 9.41465C10.2275 9.56614 10.022 9.65125 9.8078 9.65125C9.59356 9.65125 9.38809 9.56614 9.2366 9.41465C9.08511 9.26316 9 9.05769 9 8.84345C9 7.27503 10.4741 6 12.2861 6H12.3637C12.9314 6.02119 13.4826 6.19693 13.9578 6.50828C14.433 6.81963 14.8143 7.25478 15.0604 7.76682C15.2865 8.19349 15.3877 8.67527 15.3524 9.15686C15.3171 9.63844 15.1467 10.1003 14.8607 10.4894C14.7205 10.6775 14.5583 10.8804 14.389 11.093C13.872 11.7392 13.0965 12.7086 13.0965 13.212C13.0945 13.426 13.0077 13.6304 12.8552 13.7805C12.7027 13.9306 12.4969 14.0141 12.2829 14.0127V14.0127Z" fill="white"/>
<path d="M12.283 18C12.9532 18 13.4966 17.4566 13.4966 16.7863C13.4966 16.1161 12.9532 15.5727 12.283 15.5727C11.6127 15.5727 11.0693 16.1161 11.0693 16.7863C11.0693 17.4566 11.6127 18 12.283 18Z" fill="white"/>
</svg>
